<svg width="162" height="130" viewBox="0 0 162 130" fill="none" xmlns="http://www.w3.org/2000/svg">
<path d="M159.838 27.274C153.071 15.0548 146.674 -1.32746 129.949 3.15379C122.002 5.28317 115.827 17.1295 116.313 24.6615C116.716 30.9093 114.981 38.8003 121.428 42.6902C126.493 45.7456 132.893 45.3116 136.887 40.5815C148.229 27.1489 127.271 17.7371 116.879 19.7922C102.694 22.5972 86.2575 57.9365 98.6123 69.0979C109.205 78.6676 116.175 63.9822 108.776 55.2718C98.3675 43.0187 88.7933 42.63 76.6898 55.7353C67.2394 65.9679 70.0816 84.0285 77.7068 93.5294C79.2904 95.5027 85.2178 109.315 86.6491 107.93C100.772 94.2659 75.7517 74.1341 61.8487 76.9965C45.8744 80.2853 29.7489 83.7953 19.1902 96.4387C13.5122 103.238 3.03243 127.563 5.0464 118.936C7.56676 108.141 9.98594 93.3273 5.5115 82.5753C4.18008 79.3759 0.175275 69.0566 3.55631 79.0729C7.03836 89.3885 10.3458 98.3938 11.7626 108.637C12.0779 110.916 9.11612 114.15 8.10487 116.083C7.24835 117.721 13.9125 115.617 14.7088 115.534C21.5842 114.82 27.8684 117.468 33.7595 120.759C39.0176 123.697 45.0359 129.21 49.0008 127.25" stroke="#00ADB5" stroke-opacity="0.2" stroke-width="4" stroke-linecap="round" stroke-linejoin="round"/>
</svg>
