<svg width="257" height="349" viewBox="0 0 257 349" fill="none" xmlns="http://www.w3.org/2000/svg">
<rect width="45.0309" height="92.9437" rx="3.51536" transform="matrix(-1 0 0 1 137.173 255.056)" fill="#00ADB5" stroke="black" stroke-width="1.64486" stroke-linejoin="round"/>
<rect width="45.0309" height="66.1053" rx="3.51536" transform="matrix(-1 0 0 1 254.974 281.895)" fill="#EEEEEE" stroke="black" stroke-width="1.64486" stroke-linejoin="round"/>
<rect width="45.0309" height="195.974" rx="3.51536" transform="matrix(-1 0 0 1 46.0309 152.026)" fill="#00ADB5" stroke="black" stroke-width="1.64486" stroke-linejoin="round"/>
<path d="M195.2 128.169L148.901 128.169C148.901 128.169 156.28 195.602 166.323 206.658C176.365 217.713 228.924 248.034 228.924 248.034L246.625 237.17L213.627 185.203C213.627 185.203 217.256 164.938 195.2 128.169Z" fill="#00ADB5" stroke="black" stroke-width="1.39887"/>
<path d="M228.176 247.426L246.625 237.173L255.962 247.226C255.962 247.226 240.221 256.349 229.24 259.925L233.891 253.79L228.176 247.426Z" fill="#EEEEEE" stroke="black" stroke-width="1.39887" stroke-linejoin="round"/>
<path d="M195.003 127.186L144.416 127.119C144.416 127.119 116.294 151.849 112.751 166.358C109.208 180.868 113.248 233.524 113.248 233.524L133.694 242.564L154.802 186.947C154.802 186.947 176.871 166.041 195.003 127.186Z" fill="#00ADB5"/>
<path d="M195.003 127.186L195.004 126.487C195.243 126.487 195.465 126.609 195.593 126.811C195.721 127.012 195.738 127.265 195.637 127.482L195.003 127.186ZM144.416 127.119L143.954 126.594L144.152 126.42L144.417 126.42L144.416 127.119ZM113.248 233.524L112.966 234.164L112.583 233.995L112.551 233.578L113.248 233.524ZM133.694 242.564L134.348 242.812L134.086 243.502L133.411 243.204L133.694 242.564ZM154.802 186.947L154.148 186.698L154.205 186.549L154.321 186.439L154.802 186.947ZM195.002 127.885L144.415 127.819L144.417 126.42L195.004 126.487L195.002 127.885ZM113.531 232.885L133.977 241.924L133.411 243.204L112.966 234.164L113.531 232.885ZM133.04 242.316L154.148 186.698L155.456 187.195L134.348 242.812L133.04 242.316ZM154.802 186.947C154.321 186.439 154.321 186.439 154.321 186.439C154.321 186.439 154.322 186.439 154.322 186.438C154.322 186.438 154.323 186.437 154.324 186.436C154.327 186.434 154.33 186.43 154.335 186.426C154.345 186.416 154.361 186.401 154.381 186.382C154.422 186.342 154.484 186.283 154.565 186.203C154.729 186.043 154.972 185.802 155.288 185.481C155.921 184.84 156.848 183.877 158.018 182.6C160.358 180.047 163.671 176.234 167.55 171.209C175.308 161.16 185.329 146.263 194.369 126.89L195.637 127.482C186.546 146.964 176.466 161.948 168.657 172.064C164.752 177.123 161.414 180.965 159.05 183.546C157.867 184.836 156.929 185.81 156.284 186.464C155.962 186.79 155.713 187.037 155.544 187.202C155.459 187.285 155.395 187.347 155.351 187.389C155.329 187.41 155.313 187.426 155.301 187.437C155.296 187.443 155.291 187.447 155.288 187.45C155.287 187.451 155.286 187.452 155.285 187.453C155.284 187.453 155.284 187.454 155.284 187.454C155.284 187.454 155.283 187.454 154.802 186.947ZM144.416 127.119C144.877 127.645 144.877 127.645 144.877 127.645C144.877 127.645 144.877 127.645 144.876 127.646C144.876 127.646 144.874 127.647 144.873 127.649C144.87 127.652 144.865 127.656 144.858 127.662C144.845 127.673 144.825 127.691 144.799 127.714C144.746 127.761 144.667 127.831 144.565 127.922C144.359 128.106 144.057 128.377 143.671 128.728C142.898 129.43 141.789 130.449 140.447 131.718C137.762 134.257 134.147 137.791 130.423 141.775C126.697 145.762 122.872 150.189 119.761 154.514C116.64 158.855 114.283 163.032 113.431 166.524L112.072 166.193C112.99 162.43 115.478 158.075 118.626 153.698C121.784 149.306 125.653 144.83 129.401 140.82C133.15 136.809 136.787 133.254 139.486 130.702C140.835 129.426 141.951 128.4 142.73 127.693C143.12 127.339 143.425 127.065 143.633 126.879C143.737 126.786 143.817 126.715 143.871 126.667C143.898 126.643 143.919 126.625 143.932 126.613C143.939 126.607 143.945 126.602 143.948 126.599C143.95 126.597 143.951 126.596 143.952 126.595C143.953 126.595 143.953 126.595 143.953 126.595C143.954 126.594 143.954 126.594 144.416 127.119ZM113.431 166.524C112.565 170.067 112.153 176.007 112.033 182.986C111.914 189.945 112.087 197.873 112.37 205.356C112.653 212.838 113.047 219.867 113.371 225.026C113.532 227.606 113.676 229.718 113.779 231.184C113.831 231.918 113.873 232.49 113.902 232.878C113.916 233.072 113.927 233.221 113.934 233.32C113.938 233.37 113.941 233.408 113.943 233.433C113.944 233.446 113.945 233.455 113.945 233.462C113.945 233.465 113.946 233.467 113.946 233.469C113.946 233.469 113.946 233.47 113.946 233.47C113.946 233.471 113.946 233.471 113.248 233.524C112.551 233.578 112.551 233.578 112.551 233.577C112.551 233.577 112.551 233.576 112.551 233.575C112.551 233.574 112.551 233.571 112.55 233.568C112.55 233.562 112.549 233.552 112.548 233.539C112.546 233.514 112.543 233.476 112.54 233.425C112.532 233.325 112.521 233.176 112.506 232.981C112.478 232.591 112.436 232.018 112.384 231.283C112.28 229.813 112.136 227.698 111.974 225.114C111.651 219.947 111.256 212.905 110.972 205.409C110.688 197.914 110.515 189.957 110.635 182.962C110.754 175.988 111.165 169.904 112.072 166.193L113.431 166.524Z" fill="black"/>
<path fill-rule="evenodd" clip-rule="evenodd" d="M150.633 44.6844C149.483 44.2646 148.387 43.6511 147.387 42.7992C139.839 36.3687 143.076 26.6669 147.644 21.616C152.211 16.565 180.155 18.5798 166.973 41.9787C166.918 42.0122 166.861 42.0458 166.804 42.0797C165.33 46.7692 166.573 50.7916 168.064 55.6178C168.672 57.5862 169.322 59.6884 169.845 62.0241L155.864 61.0223C152.022 55.8044 150.565 50.5446 150.633 44.6844Z" fill="#F5B9AB"/>
<path d="M147.387 42.7992L146.854 43.4252L147.387 42.7992ZM150.633 44.6844L150.915 43.9117C151.243 44.0314 151.46 44.345 151.456 44.694L150.633 44.6844ZM147.644 21.616L148.254 22.1676L147.644 21.616ZM166.973 41.9787L167.69 42.3824C167.62 42.5063 167.519 42.6099 167.398 42.6832L166.973 41.9787ZM166.804 42.0797L166.019 41.8331C166.08 41.6386 166.211 41.4738 166.387 41.3706L166.804 42.0797ZM168.064 55.6178L167.278 55.8606L168.064 55.6178ZM169.845 62.0241L170.648 61.8443C170.705 62.098 170.638 62.3637 170.468 62.5608C170.299 62.7578 170.046 62.863 169.786 62.8444L169.845 62.0241ZM155.864 61.0223L155.806 61.8427C155.566 61.8255 155.345 61.7039 155.202 61.51L155.864 61.0223ZM147.92 42.1731C148.841 42.9577 149.851 43.5233 150.915 43.9117L150.352 45.457C149.115 45.0059 147.933 44.3445 146.854 43.4252L147.92 42.1731ZM148.254 22.1676C146.065 24.5873 144.203 28.1201 143.789 31.7827C143.379 35.4073 144.381 39.1575 147.92 42.1731L146.854 43.4252C142.846 40.0104 141.691 35.6944 142.155 31.5978C142.614 27.5392 144.654 23.6956 147.034 21.0643L148.254 22.1676ZM166.257 41.5751C169.497 35.8236 170.126 31.5316 169.358 28.412C168.595 25.3146 166.41 23.196 163.613 21.872C160.804 20.5425 157.435 20.0474 154.486 20.1977C153.016 20.2727 151.675 20.5071 150.581 20.8631C149.472 21.224 148.689 21.6866 148.254 22.1676L147.034 21.0643C147.741 20.2827 148.83 19.7033 150.072 19.299C151.329 18.8898 152.817 18.6358 154.403 18.555C157.567 18.3937 161.216 18.9176 164.317 20.3853C167.429 21.8584 170.043 24.3152 170.955 28.0187C171.862 31.6999 171.041 36.4344 167.69 42.3824L166.257 41.5751ZM166.387 41.3706C166.442 41.3382 166.496 41.3061 166.549 41.2742L167.398 42.6832C167.339 42.7183 167.28 42.7534 167.22 42.7887L166.387 41.3706ZM167.278 55.8606C165.798 51.0688 164.457 46.8027 166.019 41.8331L167.588 42.3262C166.202 46.7357 167.348 50.5143 168.85 55.375L167.278 55.8606ZM169.043 62.2039C168.527 59.9045 167.887 57.8318 167.278 55.8606L168.85 55.375C169.457 57.3407 170.116 59.4723 170.648 61.8443L169.043 62.2039ZM155.923 60.202L169.904 61.2038L169.786 62.8444L155.806 61.8427L155.923 60.202ZM151.456 44.694C151.389 50.3886 152.798 55.4709 156.527 60.5347L155.202 61.51C151.246 56.1378 149.741 50.7005 149.811 44.6747L151.456 44.694Z" fill="black"/>
<path d="M169.481 27.8491C171.669 30.8928 169.313 38.4102 167.574 40.2904C181.98 32.297 172.86 14.2618 168.415 17.5506C167.691 10.8828 160.04 8.53019 154.824 14.1694C141.747 3.60926 141.059 21.6035 145.675 24.34C150.29 27.0765 155.89 24.4705 158.796 25.8816C161.703 27.2927 163.496 35.8405 164.437 31.0963C165.379 26.3522 166.747 24.0444 169.481 27.8491Z" fill="#00ADB5" stroke="black" stroke-width="1.64486"/>
<path d="M142.727 128.265C127.648 118.236 133.941 83.5813 136.086 73.7283C136.472 71.9556 137.044 70.255 137.737 68.5786C143.437 54.8001 157.498 43.7023 170.966 50.1027C199.651 63.7358 195.387 107.223 195.116 128.591L142.727 128.265Z" fill="#EEEEEE" stroke="black" stroke-width="1.64486" stroke-linejoin="round"/>
<path d="M97.3717 81.3722L109.474 66.603L150.253 95.1333L163.433 68.6039L180.499 95.1331C180.499 95.1331 162.011 123.848 152.619 123.014C135.503 121.493 97.3717 81.3722 97.3717 81.3722Z" fill="#EEEEEE"/>
<path d="M162.53 70.5397L150.368 94.3189L109.475 66.6035L97.3719 81.3727C97.3719 81.3727 133.318 121.245 154.324 123.111C160.935 123.699 180.196 94.8459 180.196 94.8459" stroke="black" stroke-width="1.64486"/>
<path d="M105.451 63.938L110.244 67.0145L98.2113 82.2598L94.4266 79.1937C90.4001 75.9317 89.7622 70.0309 92.9986 65.9837C96.0131 62.2139 101.388 61.3308 105.451 63.938Z" fill="#F5B9AB" stroke="black" stroke-width="1.64486" stroke-linejoin="round"/>
<path d="M113 231.606L133.694 242.395L130.134 255.877L102.503 238.861L110.633 239.965L113 231.606Z" fill="#EEEEEE" stroke="black" stroke-width="1.39887" stroke-linejoin="round"/>
</svg>
