<svg width="455" height="349" viewBox="0 0 455 349" fill="none" xmlns="http://www.w3.org/2000/svg">
<rect width="45.0309" height="92.9437" rx="3.51536" transform="matrix(-1 0 0 1 335.173 255.056)" fill="#00ADB5" stroke="black" stroke-width="1.64486" stroke-linejoin="round"/>
<rect width="45.0309" height="66.1053" rx="3.51536" transform="matrix(-1 0 0 1 452.974 281.895)" fill="#EEEEEE" stroke="black" stroke-width="1.64486" stroke-linejoin="round"/>
<rect width="45.0309" height="195.974" rx="3.51536" transform="matrix(-1 0 0 1 244.031 152.026)" fill="#00ADB5" stroke="black" stroke-width="1.64486" stroke-linejoin="round"/>
<path d="M176.838 108.274C170.071 96.0548 163.674 79.6725 146.949 84.1538C139.002 86.2832 132.827 98.1295 133.313 105.662C133.716 111.909 131.981 119.8 138.428 123.69C143.493 126.746 149.893 126.312 153.887 121.582C165.229 108.149 144.271 98.7371 133.879 100.792C119.694 103.597 103.257 138.937 115.612 150.098C126.205 159.668 133.175 144.982 125.776 136.272C115.367 124.019 105.793 123.63 93.6898 136.735C84.2394 146.968 87.0816 165.028 94.7068 174.529C96.2904 176.503 102.218 190.315 103.649 188.93C117.772 175.266 92.7517 155.134 78.8487 157.996C62.8744 161.285 46.7489 164.795 36.1902 177.439C30.5122 184.238 20.0324 208.563 22.0464 199.936C24.5668 189.141 26.9859 174.327 22.5115 163.575C21.1801 160.376 17.1753 150.057 20.5563 160.073C24.0384 170.389 27.3458 179.394 28.7626 189.637C29.0779 191.916 26.1161 195.15 25.1049 197.083C24.2483 198.721 30.9125 196.617 31.7088 196.534C38.5842 195.82 44.8684 198.468 50.7595 201.759C56.0176 204.697 62.0359 210.21 66.0008 208.25" stroke="#00ADB5" stroke-opacity="0.2" stroke-width="4" stroke-linecap="round" stroke-linejoin="round"/>
<path d="M393.2 128.169L346.901 128.169C346.901 128.169 354.28 195.602 364.323 206.658C374.365 217.713 426.924 248.034 426.924 248.034L444.625 237.17L411.627 185.203C411.627 185.203 415.256 164.938 393.2 128.169Z" fill="#00ADB5" stroke="black" stroke-width="1.39887"/>
<path d="M426.176 247.426L444.625 237.173L453.962 247.226C453.962 247.226 438.221 256.349 427.24 259.925L431.891 253.79L426.176 247.426Z" fill="#EEEEEE" stroke="black" stroke-width="1.39887" stroke-linejoin="round"/>
<path d="M393.003 127.186L342.416 127.119C342.416 127.119 314.294 151.849 310.751 166.358C307.208 180.868 311.248 233.524 311.248 233.524L331.694 242.564L352.802 186.947C352.802 186.947 374.871 166.041 393.003 127.186Z" fill="#00ADB5"/>
<path d="M393.003 127.186L393.004 126.487C393.243 126.487 393.465 126.609 393.593 126.811C393.721 127.012 393.738 127.265 393.637 127.482L393.003 127.186ZM342.416 127.119L341.954 126.594L342.152 126.42L342.417 126.42L342.416 127.119ZM311.248 233.524L310.966 234.164L310.583 233.995L310.551 233.578L311.248 233.524ZM331.694 242.564L332.348 242.812L332.086 243.502L331.411 243.204L331.694 242.564ZM352.802 186.947L352.148 186.698L352.205 186.549L352.321 186.439L352.802 186.947ZM393.002 127.885L342.415 127.819L342.417 126.42L393.004 126.487L393.002 127.885ZM311.531 232.885L331.977 241.924L331.411 243.204L310.966 234.164L311.531 232.885ZM331.04 242.316L352.148 186.698L353.456 187.195L332.348 242.812L331.04 242.316ZM352.802 186.947C352.321 186.439 352.321 186.439 352.321 186.439C352.321 186.439 352.322 186.439 352.322 186.438C352.322 186.438 352.323 186.437 352.324 186.436C352.327 186.434 352.33 186.43 352.335 186.426C352.345 186.416 352.361 186.401 352.381 186.382C352.422 186.342 352.484 186.283 352.565 186.203C352.729 186.043 352.972 185.802 353.288 185.481C353.921 184.84 354.848 183.877 356.018 182.6C358.358 180.047 361.671 176.234 365.55 171.209C373.308 161.16 383.329 146.263 392.369 126.89L393.637 127.482C384.546 146.964 374.466 161.948 366.657 172.064C362.752 177.123 359.414 180.965 357.05 183.546C355.867 184.836 354.929 185.81 354.284 186.464C353.962 186.79 353.713 187.037 353.544 187.202C353.459 187.285 353.395 187.347 353.351 187.389C353.329 187.41 353.313 187.426 353.301 187.437C353.296 187.443 353.291 187.447 353.288 187.45C353.287 187.451 353.286 187.452 353.285 187.453C353.284 187.453 353.284 187.454 353.284 187.454C353.284 187.454 353.283 187.454 352.802 186.947ZM342.416 127.119C342.877 127.645 342.877 127.645 342.877 127.645C342.877 127.645 342.877 127.645 342.876 127.646C342.876 127.646 342.874 127.647 342.873 127.649C342.87 127.652 342.865 127.656 342.858 127.662C342.845 127.673 342.825 127.691 342.799 127.714C342.746 127.761 342.667 127.831 342.565 127.922C342.359 128.106 342.057 128.377 341.671 128.728C340.898 129.43 339.789 130.449 338.447 131.718C335.762 134.257 332.147 137.791 328.423 141.775C324.697 145.762 320.872 150.189 317.761 154.514C314.64 158.855 312.283 163.032 311.431 166.524L310.072 166.193C310.99 162.43 313.478 158.075 316.626 153.698C319.784 149.306 323.653 144.83 327.401 140.82C331.15 136.809 334.787 133.254 337.486 130.702C338.835 129.426 339.951 128.4 340.73 127.693C341.12 127.339 341.425 127.065 341.633 126.879C341.737 126.786 341.817 126.715 341.871 126.667C341.898 126.643 341.919 126.625 341.932 126.613C341.939 126.607 341.945 126.602 341.948 126.599C341.95 126.597 341.951 126.596 341.952 126.595C341.953 126.595 341.953 126.595 341.953 126.595C341.954 126.594 341.954 126.594 342.416 127.119ZM311.431 166.524C310.565 170.067 310.153 176.007 310.033 182.986C309.914 189.945 310.087 197.873 310.37 205.356C310.653 212.838 311.047 219.867 311.371 225.026C311.532 227.606 311.676 229.718 311.779 231.184C311.831 231.918 311.873 232.49 311.902 232.878C311.916 233.072 311.927 233.221 311.934 233.32C311.938 233.37 311.941 233.408 311.943 233.433C311.944 233.446 311.945 233.455 311.945 233.462C311.945 233.465 311.946 233.467 311.946 233.469C311.946 233.469 311.946 233.47 311.946 233.47C311.946 233.471 311.946 233.471 311.248 233.524C310.551 233.578 310.551 233.578 310.551 233.577C310.551 233.577 310.551 233.576 310.551 233.575C310.551 233.574 310.551 233.571 310.55 233.568C310.55 233.562 310.549 233.552 310.548 233.539C310.546 233.514 310.543 233.476 310.54 233.425C310.532 233.325 310.521 233.176 310.506 232.981C310.478 232.591 310.436 232.018 310.384 231.283C310.28 229.813 310.136 227.698 309.974 225.114C309.651 219.947 309.256 212.905 308.972 205.409C308.688 197.914 308.515 189.957 308.635 182.962C308.754 175.988 309.165 169.904 310.072 166.193L311.431 166.524Z" fill="black"/>
<path fill-rule="evenodd" clip-rule="evenodd" d="M348.633 44.6844C347.483 44.2646 346.387 43.6511 345.387 42.7992C337.839 36.3687 341.076 26.6669 345.644 21.616C350.211 16.565 378.155 18.5798 364.973 41.9787C364.918 42.0122 364.861 42.0458 364.804 42.0797C363.33 46.7692 364.573 50.7916 366.064 55.6178C366.672 57.5862 367.322 59.6884 367.845 62.0241L353.864 61.0223C350.022 55.8044 348.565 50.5446 348.633 44.6844Z" fill="#F5B9AB"/>
<path d="M345.387 42.7992L344.854 43.4252L345.387 42.7992ZM348.633 44.6844L348.915 43.9117C349.243 44.0314 349.46 44.345 349.456 44.694L348.633 44.6844ZM345.644 21.616L346.254 22.1676L345.644 21.616ZM364.973 41.9787L365.69 42.3824C365.62 42.5063 365.519 42.6099 365.398 42.6832L364.973 41.9787ZM364.804 42.0797L364.019 41.8331C364.08 41.6386 364.211 41.4738 364.387 41.3706L364.804 42.0797ZM366.064 55.6178L365.278 55.8606L366.064 55.6178ZM367.845 62.0241L368.648 61.8443C368.705 62.098 368.638 62.3637 368.468 62.5608C368.299 62.7578 368.046 62.863 367.786 62.8444L367.845 62.0241ZM353.864 61.0223L353.806 61.8427C353.566 61.8255 353.345 61.7039 353.202 61.51L353.864 61.0223ZM345.92 42.1731C346.841 42.9577 347.851 43.5233 348.915 43.9117L348.352 45.457C347.115 45.0059 345.933 44.3445 344.854 43.4252L345.92 42.1731ZM346.254 22.1676C344.065 24.5873 342.203 28.1201 341.789 31.7827C341.379 35.4073 342.381 39.1575 345.92 42.1731L344.854 43.4252C340.846 40.0104 339.691 35.6944 340.155 31.5978C340.614 27.5392 342.654 23.6956 345.034 21.0643L346.254 22.1676ZM364.257 41.5751C367.497 35.8236 368.126 31.5316 367.358 28.412C366.595 25.3146 364.41 23.196 361.613 21.872C358.804 20.5425 355.435 20.0474 352.486 20.1977C351.016 20.2727 349.675 20.5071 348.581 20.8631C347.472 21.224 346.689 21.6866 346.254 22.1676L345.034 21.0643C345.741 20.2827 346.83 19.7033 348.072 19.299C349.329 18.8898 350.817 18.6358 352.403 18.555C355.567 18.3937 359.216 18.9176 362.317 20.3853C365.429 21.8584 368.043 24.3152 368.955 28.0187C369.862 31.6999 369.041 36.4344 365.69 42.3824L364.257 41.5751ZM364.387 41.3706C364.442 41.3382 364.496 41.3061 364.549 41.2742L365.398 42.6832C365.339 42.7183 365.28 42.7534 365.22 42.7887L364.387 41.3706ZM365.278 55.8606C363.798 51.0688 362.457 46.8027 364.019 41.8331L365.588 42.3262C364.202 46.7357 365.348 50.5143 366.85 55.375L365.278 55.8606ZM367.043 62.2039C366.527 59.9045 365.887 57.8318 365.278 55.8606L366.85 55.375C367.457 57.3407 368.116 59.4723 368.648 61.8443L367.043 62.2039ZM353.923 60.202L367.904 61.2038L367.786 62.8444L353.806 61.8427L353.923 60.202ZM349.456 44.694C349.389 50.3886 350.798 55.4709 354.527 60.5347L353.202 61.51C349.246 56.1378 347.741 50.7005 347.811 44.6747L349.456 44.694Z" fill="black"/>
<path d="M367.481 27.8491C369.669 30.8928 367.313 38.4102 365.574 40.2904C379.98 32.297 370.86 14.2618 366.415 17.5506C365.691 10.8828 358.04 8.53019 352.824 14.1694C339.747 3.60926 339.059 21.6035 343.675 24.34C348.29 27.0765 353.89 24.4705 356.796 25.8816C359.703 27.2927 361.496 35.8405 362.437 31.0963C363.379 26.3522 364.747 24.0444 367.481 27.8491Z" fill="#00ADB5" stroke="black" stroke-width="1.64486"/>
<path d="M340.727 128.265C325.648 118.236 331.941 83.5813 334.086 73.7283C334.472 71.9556 335.044 70.255 335.737 68.5786C341.437 54.8001 355.498 43.7023 368.966 50.1027C397.651 63.7358 393.387 107.223 393.116 128.591L340.727 128.265Z" fill="#EEEEEE" stroke="black" stroke-width="1.64486" stroke-linejoin="round"/>
<path d="M295.372 81.3722L307.474 66.603L348.253 95.1333L361.433 68.6039L378.499 95.1331C378.499 95.1331 360.011 123.848 350.619 123.014C333.503 121.493 295.372 81.3722 295.372 81.3722Z" fill="#EEEEEE"/>
<path d="M360.53 70.5397L348.368 94.3189L307.475 66.6035L295.372 81.3727C295.372 81.3727 331.318 121.245 352.324 123.111C358.935 123.699 378.196 94.8459 378.196 94.8459" stroke="black" stroke-width="1.64486"/>
<path d="M303.451 63.938L308.244 67.0145L296.211 82.2598L292.427 79.1937C288.4 75.9317 287.762 70.0309 290.999 65.9837C294.013 62.2139 299.388 61.3308 303.451 63.938Z" fill="#F5B9AB" stroke="black" stroke-width="1.64486" stroke-linejoin="round"/>
<path d="M311 231.606L331.694 242.395L328.134 255.877L300.503 238.861L308.633 239.965L311 231.606Z" fill="#EEEEEE" stroke="black" stroke-width="1.39887" stroke-linejoin="round"/>
</svg>
